<?xml version="1.0" encoding="UTF-8" ?>
<!DOCTYPE svg PUBLIC "-//W3C//DTD SVG 1.1//EN" "http://www.w3.org/Graphics/SVG/1.1/DTD/svg11.dtd">
<svg width="435pt" height="175pt" viewBox="0 0 435 175" version="1.1" xmlns="http://www.w3.org/2000/svg">
  <g/>
  <g>
    <path fill="#ef3a43" opacity="1.00" d=" M 87.19 23.51 C 97.55 37.43 107.77 51.44 117.99 65.46 C 120.14 68.47 122.29 71.48 124.58 74.39 C 131.83 84.25 139.06 94.14 146.32 104.00 C 137.57 111.79 128.88 119.65 120.03 127.33 C 109.02 127.96 97.97 126.78 87.22 124.41 C 87.17 90.78 87.22 57.14 87.19 23.51 Z"/>
    <path fill="#ef3a43" opacity="1.00" d=" M 193.24 92.33 C 199.20 91.83 205.20 92.28 211.18 92.13 C 211.48 93.60 211.79 95.06 212.11 96.53 C 207.60 95.86 203.04 95.88 198.51 96.12 C 198.50 96.91 198.48 98.50 198.47 99.29 C 202.28 99.57 206.28 98.75 209.97 99.92 C 213.06 101.38 212.16 105.27 212.33 108.02 C 212.36 110.71 212.24 114.57 208.92 115.23 C 202.86 115.82 196.75 115.29 190.67 115.47 C 190.38 113.95 190.09 112.43 189.80 110.92 C 194.30 112.04 198.96 111.55 203.54 111.50 C 203.60 110.38 203.65 109.26 203.68 108.14 C 199.50 107.61 194.88 108.92 191.00 107.02 C 189.09 104.52 189.83 101.02 189.75 98.07 C 189.69 95.78 190.55 92.68 193.24 92.33 Z"/>
    <path fill="#ef3a43" opacity="1.00" d=" M 228.15 92.10 C 231.38 92.14 234.62 92.14 237.85 92.10 C 237.27 99.86 237.13 107.74 237.93 115.49 C 234.64 115.46 231.36 115.46 228.07 115.49 C 228.87 107.74 228.72 99.86 228.15 92.10 Z"/>
    <path fill="#ef3a43" opacity="1.00" d=" M 253.68 92.11 C 260.33 92.16 266.97 92.11 273.62 92.14 C 273.88 93.58 274.14 95.02 274.40 96.47 C 270.65 96.01 266.87 95.99 263.11 96.10 C 263.10 97.87 263.09 99.64 263.08 101.42 C 266.52 101.47 269.97 101.43 273.40 101.02 C 273.40 102.60 273.42 104.19 273.45 105.78 C 270.01 105.32 266.55 105.26 263.09 105.33 C 263.10 107.42 263.10 109.50 263.10 111.59 C 266.99 111.67 270.90 111.64 274.78 111.20 C 274.59 112.27 274.22 114.40 274.03 115.47 C 267.23 115.49 260.43 115.42 253.63 115.51 C 254.57 107.77 254.48 99.85 253.68 92.11 Z"/>
    <path fill="#ef3a43" opacity="1.00" d=" M 288.77 92.10 C 292.74 92.14 296.70 92.13 300.67 92.15 C 302.17 96.54 303.59 100.95 305.06 105.34 C 306.73 100.97 308.23 96.53 309.85 92.13 C 313.73 92.14 317.62 92.15 321.51 92.09 C 320.93 99.86 320.43 107.76 321.54 115.51 C 318.22 115.45 314.91 115.45 311.59 115.50 C 312.57 109.47 312.01 103.35 312.12 97.28 C 309.80 103.28 307.82 109.40 305.66 115.45 C 303.60 115.46 301.55 115.47 299.50 115.48 C 297.34 109.42 295.27 103.33 293.37 97.18 C 293.18 103.28 292.86 109.42 293.64 115.50 C 291.98 115.49 290.32 115.50 288.66 115.51 C 289.68 107.79 289.53 99.85 288.77 92.10 Z"/>
    <path fill="#ef3a43" opacity="1.00" d=" M 340.24 92.40 C 345.78 91.86 351.39 92.11 356.95 92.24 C 359.64 92.18 361.57 94.73 361.64 97.25 C 361.84 101.51 361.80 105.79 361.66 110.06 C 361.70 112.64 359.79 115.40 357.01 115.37 C 352.02 115.58 347.03 115.51 342.05 115.42 C 339.42 115.61 336.98 113.58 336.81 110.93 C 336.42 106.63 336.55 102.30 336.66 97.99 C 336.64 95.67 337.80 93.00 340.24 92.40 M 345.65 96.13 C 345.45 101.22 345.52 106.31 345.58 111.40 C 347.99 111.62 350.41 111.61 352.82 111.33 C 352.78 106.30 352.82 101.27 352.78 96.25 C 350.41 96.04 348.03 96.02 345.65 96.13 Z"/>
    <path fill="#ef3a43" opacity="1.00" d=" M 377.14 92.11 C 381.11 92.14 385.09 92.13 389.08 92.14 C 392.18 98.48 395.37 104.79 398.49 111.13 C 398.46 104.78 398.85 98.41 398.19 92.08 C 399.74 92.10 401.29 92.11 402.86 92.12 C 402.04 99.87 402.66 107.68 402.46 115.46 C 398.62 115.47 394.79 115.47 390.96 115.47 C 387.72 109.06 384.56 102.61 381.40 96.17 C 381.44 102.60 380.87 109.10 381.83 115.48 C 380.16 115.49 378.49 115.51 376.83 115.55 C 377.92 107.81 377.39 99.91 377.14 92.11 Z"/>
    <path fill="#ef3a43" opacity="1.00" d=" M 87.20 129.98 C 95.77 131.85 104.50 133.04 113.27 133.36 C 104.64 141.28 95.70 148.85 87.14 156.84 C 87.27 147.89 87.17 138.94 87.20 129.98 Z"/>
  </g>
  <g>
    <path fill="#040706" opacity="1.00" d=" M 28.44 64.37 C 38.72 57.88 51.16 56.25 63.07 55.73 C 61.47 57.91 59.88 60.10 58.32 62.30 C 49.71 63.67 40.58 65.90 34.17 72.19 C 29.86 76.37 28.42 83.03 30.58 88.64 C 33.50 96.52 39.94 102.46 46.61 107.27 C 58.75 115.76 72.82 121.19 87.22 124.41 C 97.97 126.78 109.02 127.96 120.03 127.33 C 130.10 126.51 140.89 124.62 148.78 117.80 C 154.11 113.36 155.74 105.40 152.69 99.17 C 147.25 87.39 135.61 80.25 124.58 74.39 C 122.29 71.48 120.14 68.47 117.99 65.46 C 131.32 70.57 144.35 77.32 154.64 87.37 C 160.37 93.10 165.55 100.43 165.44 108.88 C 165.23 116.52 159.60 122.82 153.08 126.17 C 140.93 132.62 126.78 133.69 113.27 133.36 C 104.50 133.04 95.77 131.85 87.20 129.98 C 69.67 126.13 52.48 119.59 37.80 109.11 C 28.70 102.49 20.01 93.68 18.04 82.15 C 17.76 74.88 22.41 68.12 28.44 64.37 Z"/>
  </g>
</svg>
