<?xml version="1.0" encoding="UTF-8" standalone="no"?>
<!-- Created with Inkscape (http://www.inkscape.org/) -->

<svg
   xmlns:dc="http://purl.org/dc/elements/1.1/"
   xmlns:cc="http://creativecommons.org/ns#"
   xmlns:rdf="http://www.w3.org/1999/02/22-rdf-syntax-ns#"
   xmlns:svg="http://www.w3.org/2000/svg"
   xmlns="http://www.w3.org/2000/svg"
   xmlns:sodipodi="http://sodipodi.sourceforge.net/DTD/sodipodi-0.dtd"
   xmlns:inkscape="http://www.inkscape.org/namespaces/inkscape"
   width="151.4501"
   height="57.37912"
   viewBox="0 0 40.071174 15.181558"
   version="1.1"
   id="svg9709"
   inkscape:version="0.92.0 r15299"
   sodipodi:docname="tripp lite.svg">
  <defs
     id="defs9703" />
  <sodipodi:namedview
     id="base"
     pagecolor="#ffffff"
     bordercolor="#666666"
     borderopacity="1.0"
     inkscape:pageopacity="0.0"
     inkscape:pageshadow="2"
     inkscape:zoom="1.4015625"
     inkscape:cx="240.93934"
     inkscape:cy="-52.287094"
     inkscape:document-units="mm"
     inkscape:current-layer="layer1"
     showgrid="false"
     fit-margin-top="0"
     fit-margin-left="0"
     fit-margin-right="0"
     fit-margin-bottom="0"
     units="px"
     inkscape:window-width="1280"
     inkscape:window-height="744"
     inkscape:window-x="-4"
     inkscape:window-y="-4"
     inkscape:window-maximized="1" />
  <metadata
     id="metadata9706">
    <rdf:RDF>
      <cc:Work
         rdf:about="">
        <dc:format>image/svg+xml</dc:format>
        <dc:type
           rdf:resource="http://purl.org/dc/dcmitype/StillImage" />
        <dc:title></dc:title>
      </cc:Work>
    </rdf:RDF>
  </metadata>
  <g
     inkscape:label="Layer 1"
     inkscape:groupmode="layer"
     id="layer1"
     transform="translate(-88.95385,-184.9555)">
    <g
       transform="translate(-893.40277,-486.83291)"
       id="g9680"
       style="fill:#0066b3;fill-opacity:1">
      <path
         d="m 1006.0256,679.7212 c 0,0.61454 -0.3549,1.11266 -0.7927,1.11266 -0.4385,0 -0.7934,-0.49812 -0.7934,-1.11266 0,-0.61419 0.3549,-1.11196 0.7934,-1.11196 0.4378,0 0.7927,0.49777 0.7927,1.11196"
         style="fill:#0066b3;fill-opacity:1;fill-rule:nonzero;stroke:none;stroke-width:0.35277778"
         id="path7357"
         inkscape:connector-curvature="0" />
      <path
         d="m 983.42988,675.25517 -0.29139,1.96885 h 1.42169 l -0.8569,6.28968 h 1.67711 l 0.87489,-6.28968 h 1.36701 l 0.27376,-1.96885 z"
         style="fill:#0066b3;fill-opacity:1;fill-rule:nonzero;stroke:none;stroke-width:0.35277778"
         id="path7361"
         inkscape:connector-curvature="0" />
      <path
         d="m 1013.3076,675.25517 -0.2914,1.96885 h 1.4217 l -0.8569,6.28968 h 1.6771 l 0.8749,-6.28968 h 1.367 l 0.2734,-1.96885 z"
         style="fill:#0066b3;fill-opacity:1;fill-rule:nonzero;stroke:none;stroke-width:0.35277778"
         id="path7365"
         inkscape:connector-curvature="0" />
      <path
         d="m 991.61496,682.18249 c 0.091,-0.67451 0.18203,-2.02353 -0.29175,-2.38795 0.29175,-0.27341 0.83856,-0.45579 0.91158,-2.09656 0.0727,-1.64042 -0.69285,-2.38795 -1.93252,-2.46098 l -2.2606,0.018 -1.14793,8.24054 h 1.6584 l 0.40146,-2.95381 c 0,0 0.56269,0.002 0.5648,0 0.41769,0.0289 0.54892,0.0945 0.47025,1.01283 -0.0984,0.89252 -0.0656,1.78858 0.0395,1.94098 0,0.007 0.92322,0 1.76882,0 v -0.54681 c 0,0 -0.2734,-0.0917 -0.18203,-0.76623 m -1.00965,-4.30107 c -0.0579,0.8181 -0.79375,0.72143 -0.79375,0.72143 h -0.58385 l 0.20991,-1.47602 c 0,0 0.5969,0.007 0.5969,0 0.30832,0.0134 0.6297,-0.0787 0.57079,0.75459"
         style="fill:#0066b3;fill-opacity:1;fill-rule:nonzero;stroke:none;stroke-width:0.35277778"
         id="path7377"
         inkscape:connector-curvature="0" />
      <path
         d="m 999.58484,678.0781 c 0.16475,-1.63407 -0.5655,-2.76789 -1.80516,-2.84092 l -2.26025,0.018 -1.14829,8.24054 h 1.65841 l 0.38064,-2.80705 h 0.66252 c 1.79705,0 2.32833,-0.78705 2.51213,-2.61056 m -1.65276,-0.0526 c -0.0579,0.81844 -0.66922,0.72143 -0.66922,0.72143 h -0.58385 l 0.21661,-1.61326 c 0.1531,10e-4 0.31467,0.0131 0.61665,0.0131 0.30833,0.0131 0.47872,0.0459 0.41981,0.87877"
         style="fill:#0066b3;fill-opacity:1;fill-rule:nonzero;stroke:none;stroke-width:0.35277778"
         id="path7381"
         inkscape:connector-curvature="0" />
      <path
         d="m 1004.4386,678.0781 c 0.1647,-1.63407 -0.5655,-2.76789 -1.8052,-2.84092 l -2.2602,0.018 -1.1483,8.24054 h 1.6588 l 0.3803,-2.80705 h 0.6625 c 1.797,0 2.3283,-0.78705 2.5121,-2.61056 m -1.6528,-0.0526 c -0.058,0.81844 -0.6692,0.72143 -0.6692,0.72143 h -0.5838 l 0.2166,-1.61326 c 0.1531,10e-4 0.3147,0.0131 0.6166,0.0131 0.3084,0.0131 0.4788,0.0459 0.4198,0.87877"
         style="fill:#0066b3;fill-opacity:1;fill-rule:nonzero;stroke:none;stroke-width:0.35277778"
         id="path7385"
         inkscape:connector-curvature="0" />
      <path
         d="m 994.82531,675.24452 h -1.62666 l -1.17016,8.23877 h 1.62666 z"
         style="fill:#0066b3;fill-opacity:1;fill-rule:nonzero;stroke:none;stroke-width:0.35277778"
         id="path7389"
         inkscape:connector-curvature="0" />
      <path
         d="m 1007.8822,681.46918 0.8389,-6.22688 h -1.6605 l -0.8386,6.22688 -0.2748,2.038 h 1.6602 2.4532 l 0.2748,-2.038 z"
         style="fill:#0066b3;fill-opacity:1;fill-rule:nonzero;stroke:none;stroke-width:0.35277778"
         id="path7393"
         inkscape:connector-curvature="0" />
      <path
         d="m 1013.1108,675.26131 h -1.6792 l -1.1314,8.22678 h 1.6792 z"
         style="fill:#0066b3;fill-opacity:1;fill-rule:nonzero;stroke:none;stroke-width:0.35277778"
         id="path7397"
         inkscape:connector-curvature="0" />
      <path
         d="m 1021.5988,677.21513 0.2678,-1.97485 h -3.8601 v 0.0212 h -0.058 l -0.8686,6.3119 h -0.018 l -0.2607,1.92158 h 4.0203 l 0.2607,-1.92158 h -2.3234 l 0.1912,-1.38713 h 2.0538 l 0.2607,-1.92158 h -2.0507 l 0.1447,-1.04951 z"
         style="fill:#0066b3;fill-opacity:1;fill-rule:nonzero;stroke:none;stroke-width:0.35277778"
         id="path7401"
         inkscape:connector-curvature="0" />
      <path
         d="m 1022.2953,673.73505 h -8.3647 c -1.2898,-1.1116 -2.982,-1.79493 -4.8331,-1.80305 -0.012,0 -0.024,-0.0113 -0.035,-0.0113 -1.8631,0 -3.5698,0.68369 -4.8659,1.81434 h -4.87857 c -1.26965,-1.07809 -2.90619,-1.75542 -4.68101,-1.75542 -1.8415,0 -3.53131,0.65722 -4.81366,1.75542 h -7.33425 v 0.60431 h 39.80639 z m -16.8271,0 c 1.0396,-0.66604 2.2817,-1.05516 3.5941,-1.05516 0.011,0 0.024,0.0113 0.035,0.0113 1.3519,0.007 2.6141,0.38135 3.6615,1.04387 z"
         style="fill:#0066b3;fill-opacity:1;fill-rule:nonzero;stroke:none;stroke-width:0.35277778"
         id="path7413"
         inkscape:connector-curvature="0" />
      <path
         d="m 1022.2953,684.41141 h -39.80639 v 0.60431 h 7.33708 c 1.28199,1.09855 2.96933,1.75718 4.81083,1.75718 1.77588,0 3.41136,-0.67839 4.68136,-1.75718 h 4.87502 c 1.2965,1.13206 3.005,1.8168 4.8691,1.8168 0.011,0 0.024,0.0116 0.035,0 1.8574,-0.008 3.5546,-0.69532 4.8454,-1.8168 h 8.3524 z m -13.1978,1.66194 h -0.035 c -1.312,0 -2.5531,-0.39123 -3.5924,-1.05763 h 7.3032 c -1.0505,0.67063 -2.317,1.05092 -3.6756,1.05763"
         style="fill:#0066b3;fill-opacity:1;fill-rule:nonzero;stroke:none;stroke-width:0.35277778"
         id="path7417"
         inkscape:connector-curvature="0" />
    </g>
  </g>
</svg>
